<?xml version="1.0" standalone="no"?>
<!DOCTYPE svg PUBLIC "-//W3C//DTD SVG 20010904//EN"
 "http://www.w3.org/TR/2001/REC-SVG-20010904/DTD/svg10.dtd">
<svg version="1.0" xmlns="http://www.w3.org/2000/svg"
 width="255.000000pt" height="269.000000pt" viewBox="0 0 255.000000 269.000000"
 preserveAspectRatio="xMidYMid meet">

<g transform="translate(0.000000,269.000000) scale(0.100000,-0.100000)"
fill="#000000" stroke="none">
<path d="M0 1345 l0 -1345 1275 0 1275 0 0 1345 0 1345 -1275 0 -1275 0 0
-1345z m1338 890 c55 -170 114 -357 132 -415 18 -58 39 -111 48 -117 12 -10
120 -13 459 -13 244 0 443 -4 443 -8 0 -5 -18 -18 -39 -30 -39 -22 -65 -40
-256 -183 -49 -36 -106 -75 -125 -85 -19 -11 -44 -29 -55 -40 -32 -35 -66 -49
-77 -33 -8 11 -9 10 -4 -3 3 -10 1 -20 -4 -23 -6 -4 -10 -2 -10 3 0 6 -8 8
-18 5 -13 -3 -18 -11 -15 -26 4 -18 -6 -29 -51 -56 -31 -18 -63 -31 -71 -27
-8 3 -15 1 -15 -4 0 -6 -7 -10 -15 -10 -8 0 -15 4 -15 9 0 9 -38 24 -57 22 -6
-1 -14 3 -18 9 -8 12 -215 14 -215 1 0 -4 -18 -7 -40 -6 -43 2 -59 -21 -18
-27 21 -3 21 -4 -6 -16 -25 -11 -28 -11 -22 4 4 10 2 14 -6 12 -7 -3 -15 -15
-16 -29 -6 -38 -21 -50 -56 -43 -25 4 -37 0 -59 -20 -16 -14 -36 -26 -45 -26
-11 0 -1 15 30 43 79 71 91 80 116 83 25 3 44 14 24 14 -7 0 -12 4 -12 10 0 5
6 7 13 4 7 -2 20 9 29 24 23 39 116 121 197 175 38 24 59 52 49 63 -7 6 -24 2
-123 -26 -203 -57 -494 -177 -586 -241 -70 -49 -83 -47 -194 36 -33 25 -97 69
-141 100 -45 30 -88 60 -95 68 -8 7 -27 22 -44 33 -16 10 -79 55 -140 98 -60
44 -129 93 -153 110 l-44 31 455 3 c348 2 457 5 464 15 5 6 19 46 32 87 62
206 233 733 243 754 6 10 13 14 18 10 4 -5 53 -148 108 -319z"/>
</g>
</svg>
